<svg width="403" height="86" viewBox="0 0 403 86" fill="none" xmlns="http://www.w3.org/2000/svg">
<g clip-path="url(#clip0_5195_10256)">
<path d="M82.7816 55.3434C77.5412 72.2894 61.9965 84.7525 43.3816 85.1512C20.0845 85.6411 0.791797 67.0489 0.296235 43.6151C-0.199327 20.187 18.2846 0.791752 41.5817 0.29619C51.1454 0.096826 60.0314 3.10437 67.2199 8.35049L57.058 18.5124C52.6036 15.8181 47.3632 14.32 41.781 14.4339C26.0427 14.7643 13.5511 27.8711 13.8872 43.7063C14.2232 59.5358 27.2559 72.1071 43 71.7653C54.1758 71.5261 63.7168 64.8559 68.1882 55.3377H82.7873L82.7816 55.3434Z" fill="#0961F5" stroke="#0961F5" stroke-width="0.569611" stroke-miterlimit="10"/>
<path d="M77.1653 18.5636L67.0377 28.6913C64.6111 24.5046 61.1707 21.0015 57.0524 18.5123L67.2142 8.35046C71.0762 11.1586 74.4426 14.6162 77.1653 18.5636Z" fill="#0961F5" stroke="#0961F5" stroke-width="0.569611" stroke-miterlimit="10"/>
<path d="M49.5333 46.1954C50.3991 44.9309 50.9061 43.4044 50.9061 41.7582C50.9061 37.4006 47.3745 33.8691 43.017 33.8691C42.5214 33.8691 42.0372 33.9146 41.5645 34.0058L57.0522 18.518C61.1705 21.0015 64.6109 24.5103 67.0375 28.697L49.5333 46.2011V46.1954Z" fill="#0961F5" stroke="#0961F5" stroke-width="0.569611" stroke-miterlimit="10"/>
<path d="M36.5002 46.1955L32.9344 42.6297L35.2642 40.3C35.173 40.7671 35.1275 41.257 35.1275 41.7525C35.1275 43.3987 35.6287 44.9253 36.5002 46.1898V46.1955Z" fill="#0961F5" stroke="#0961F5" stroke-width="0.569611" stroke-miterlimit="10"/>
<path d="M50.906 41.7525C50.906 43.3987 50.4048 44.9252 49.5333 46.1897L47.4542 48.2688C46.1897 49.1346 44.6631 49.6416 43.0169 49.6416C41.3707 49.6416 39.8442 49.1403 38.5797 48.2688L36.5006 46.1897C35.6348 44.9252 35.1278 43.3987 35.1278 41.7525C35.1278 41.2569 35.1734 40.7727 35.2645 40.3L41.5701 33.9944C42.0372 33.9032 42.5271 33.8577 43.0226 33.8577C47.3801 33.8577 50.9117 37.3893 50.9117 41.7468L50.906 41.7525Z" fill="#0961F5" stroke="#0961F5" stroke-width="0.569611" stroke-miterlimit="10"/>
<path d="M36.5005 46.1954L38.5796 48.2745C37.765 47.722 37.053 47.01 36.5005 46.1954Z" fill="#0961F5" stroke="#0961F5" stroke-width="0.569611" stroke-miterlimit="10"/>
<path d="M49.5332 46.1954C48.9807 47.01 48.2686 47.722 47.4541 48.2745L49.5332 46.1954Z" fill="#0961F5" stroke="#0961F5" stroke-width="0.569611" stroke-miterlimit="10"/>
<path d="M108.072 0.28479V21.9642C100.052 28.4179 94.8859 38.5171 94.8859 49.8581V0.28479H108.072Z" fill="#0961F5" stroke="#0961F5" stroke-width="0.569611" stroke-miterlimit="10"/>
<path d="M162.943 19.0137V49.8581C162.943 38.5115 157.777 28.4179 149.757 21.9642V9.59229C149.757 15.2143 154.04 19.7655 159.326 19.7655C160.608 19.7655 161.827 19.4978 162.943 19.0137Z" fill="#0961F5" stroke="#0961F5" stroke-width="0.569611" stroke-miterlimit="10"/>
<path d="M162.943 0.28479V19.0136C161.827 19.4978 160.608 19.7655 159.326 19.7655C154.04 19.7655 149.757 15.2086 149.757 9.59224C149.757 5.43408 151.46 1.1506 155.464 0.28479H162.943Z" fill="#0961F5" stroke="#0961F5" stroke-width="0.569611" stroke-miterlimit="10"/>
<path d="M108.072 21.9642V77.7576C100.052 71.3039 94.886 61.2047 94.886 49.8638C94.886 38.5228 100.052 28.4236 108.072 21.9699V21.9642Z" fill="#0961F5" stroke="#0961F5" stroke-width="0.569611" stroke-miterlimit="10"/>
<path d="M149.757 52.239V77.7519C143.998 82.3828 136.764 85.1455 128.915 85.1455C121.065 85.1455 113.831 82.3885 108.073 77.7519V52.239C108.073 63.9559 117.403 73.457 128.915 73.457C140.426 73.457 149.757 63.9559 149.757 52.239Z" fill="#0961F5" stroke="#0961F5" stroke-width="0.569611" stroke-miterlimit="10"/>
<path d="M162.943 49.8581C162.943 61.2047 157.777 71.2982 149.757 77.7519V21.9642C157.777 28.4179 162.943 38.5171 162.943 49.8581Z" fill="#0961F5" stroke="#0961F5" stroke-width="0.569611" stroke-miterlimit="10"/>
<path d="M319.751 84.9348V63.4718C311.669 57.0808 306.462 47.0841 306.462 35.8571V84.9348H319.751Z" fill="#0961F5" stroke="#0961F5" stroke-width="0.569611" stroke-miterlimit="10"/>
<path d="M375.043 66.3939V35.8571C375.043 47.0898 369.837 57.0808 361.754 63.4718V75.7185C361.754 70.1534 366.072 65.6478 371.398 65.6478C372.691 65.6478 373.915 65.9155 375.043 66.3939Z" fill="#0961F5" stroke="#0961F5" stroke-width="0.569611" stroke-miterlimit="10"/>
<path d="M375.043 84.9348V66.3939C373.921 65.9155 372.691 65.6477 371.398 65.6477C366.072 65.6477 361.754 70.1591 361.754 75.7185C361.754 79.8367 363.469 84.0747 367.507 84.9348H375.043Z" fill="#0961F5" stroke="#0961F5" stroke-width="0.569611" stroke-miterlimit="10"/>
<path d="M319.751 63.4718V8.24231C311.669 14.6333 306.462 24.63 306.462 35.8571C306.462 47.0841 311.669 57.0808 319.751 63.4718Z" fill="#0961F5" stroke="#0961F5" stroke-width="0.569611" stroke-miterlimit="10"/>
<path d="M361.755 33.4989V8.2423C355.95 3.65692 348.665 0.922791 340.753 0.922791C332.841 0.922791 325.556 3.65123 319.751 8.2423V33.4989C319.751 21.9016 329.156 12.4973 340.753 12.4973C352.35 12.4973 361.755 21.9016 361.755 33.4989Z" fill="#0961F5" stroke="#0961F5" stroke-width="0.569611" stroke-miterlimit="10"/>
<path d="M375.043 35.8571C375.043 24.6243 369.837 14.6333 361.754 8.24231V63.4775C369.837 57.0865 375.043 47.0898 375.043 35.8628V35.8571Z" fill="#0961F5" stroke="#0961F5" stroke-width="0.569611" stroke-miterlimit="10"/>
<path d="M254.565 0.28479C231.764 0.28479 213.28 19.2813 213.28 42.7151C213.28 66.1489 231.764 85.1455 254.565 85.1455C277.367 85.1455 295.851 66.1489 295.851 42.7151C295.851 19.2813 277.367 0.28479 254.565 0.28479ZM254.616 73.776C239.277 73.776 226.836 60.0655 226.836 43.1537C226.836 26.242 239.277 12.5314 254.616 12.5314C269.956 12.5314 282.391 26.242 282.391 43.1537C282.391 60.0655 269.956 73.776 254.616 73.776Z" fill="#0961F5" stroke="#0961F5" stroke-width="0.569611" stroke-miterlimit="10"/>
<path d="M394.918 85.0259C399.382 85.0259 403 81.4071 403 76.9431C403 72.4791 399.382 68.8604 394.918 68.8604C390.454 68.8604 386.835 72.4791 386.835 76.9431C386.835 81.4071 390.454 85.0259 394.918 85.0259Z" fill="#0961F5"/>
<path d="M189.042 60.7205V65.5053H175.856V33.7437C175.856 44.8227 181.051 54.6485 189.042 60.7148V60.7205Z" fill="#0961F5" stroke="#0961F5" stroke-width="0.569611" stroke-miterlimit="10"/>
<path d="M189.042 6.77264V60.7205C181.051 54.6485 175.856 44.8284 175.856 33.7494C175.856 22.6705 181.051 12.8447 189.042 6.77834V6.77264Z" fill="#0961F5" stroke="#0961F5" stroke-width="0.569611" stroke-miterlimit="10"/>
<path d="M185.255 74.5621C185.255 76.0715 183.893 77.2962 182.213 77.2962C180.533 77.2962 179.171 76.0715 179.171 74.5621C179.171 73.8728 179.456 73.2406 179.923 72.7621C180.003 72.6767 180.088 72.6026 180.179 72.5343C180.715 72.1013 181.427 71.8336 182.207 71.8336C182.988 71.8336 183.694 72.0957 184.229 72.5286C184.338 72.6425 184.451 72.7564 184.571 72.8532C184.993 73.3203 185.243 73.9184 185.243 74.5678L185.255 74.5621Z" fill="#0961F5"/>
<path d="M188.547 73.8672L184.605 81.0955H180.014L176.26 73.7931C176.483 73.8273 176.71 73.8444 176.944 73.8444C178.072 73.8444 179.108 73.4343 179.917 72.7564C179.45 73.2349 179.165 73.8615 179.165 74.5564C179.165 76.0659 180.527 77.2905 182.207 77.2905C183.887 77.2905 185.249 76.0659 185.249 74.5564C185.249 73.9071 184.998 73.309 184.577 72.8419C185.391 73.5425 186.439 73.964 187.59 73.964C187.92 73.964 188.234 73.9298 188.547 73.8615V73.8672Z" fill="#0961F5"/>
<path d="M183.956 82.286L182.578 84.8094C182.429 85.0771 182.053 85.0714 181.917 84.8037L180.624 82.2917H183.95L183.956 82.286Z" fill="#0961F5"/>
<path d="M175.662 57.2345V71.2583C175.662 71.2583 177.303 73.1608 180.105 71.0191V57.2573L175.662 57.2345Z" fill="#0961F5"/>
<path d="M189.333 56.9725V71.2584C189.333 71.2584 187.693 73.195 184.89 71.0134V56.9896L189.333 56.9668V56.9725Z" fill="#0961F5"/>
<path d="M200.885 1.1734C198.692 1.68605 196.584 2.43224 194.591 3.38349C194.813 8.3562 198.521 12.4289 203.374 13.3346L200.891 1.1734H200.885Z" fill="#0961F5" stroke="#0961F5" stroke-width="0.569611" stroke-miterlimit="10"/>
<path d="M203.374 13.3859C198.555 12.4688 194.813 8.3847 194.585 3.38351C192.62 4.31768 190.763 5.4569 189.042 6.76701V32.4622C189.042 23.2288 195.228 15.5105 203.419 13.6137L203.374 13.3802V13.3859Z" fill="#0961F5" stroke="#0961F5" stroke-width="0.569611" stroke-miterlimit="10"/>
<path d="M216.168 1.45253C213.553 0.740516 210.807 0.35318 207.977 0.35318C206.587 0.35318 205.214 0.450014 203.87 0.626593L206.387 13.1523C206.775 13.1239 207.162 13.1125 207.555 13.1125C207.834 13.1125 208.119 13.1182 208.392 13.1353C212.938 11.8707 216.276 7.76952 216.276 2.90504C216.276 2.40948 216.242 1.92531 216.173 1.45253H216.168Z" fill="#0961F5" stroke="#0961F5" stroke-width="0.569611" stroke-miterlimit="10"/>
</g>
<defs>
<clipPath id="clip0_5195_10256">
<rect width="403" height="85.4417" fill="white"/>
</clipPath>
</defs>
</svg>
